<svg width="1024" height="512" viewBox="0 0 1024 512" fill="none" xmlns="http://www.w3.org/2000/svg">
<path id="signatue" d="M86.7698 225.839C68.9157 212.48 140.332 125.498 251.92 106.538C313.292 97.6233 260.847 201.305 199.474 279.367C155.636 335.125 55.5251 451.102 41.0187 386.422C35.4412 357.451 45.0735 318.009 102 282.736C135 262.288 189.554 304.62 240.823 309.499C264.257 311.73 306.66 300.578 306.66 282.736C306.66 270.469 270.412 279.367 241.939 317.306C235.244 326.227 227.433 337.378 227.433 345.185C227.433 358.567 255.33 373.064 301.081 342.954C332.526 322.26 376.665 286.376 378.077 284.966C383.656 279.39 335.378 306.761 330.094 357.451C328.699 370.833 350.738 369.718 370.266 354.106C376.233 349.335 397.047 331.803 405.974 318.421C413.413 307.269 427.176 286.081 413.785 283.851C405.974 282.736 397.047 287.196 392.583 295.002C388.757 301.693 390.128 313.068 420.48 309.499C437.218 307.269 460.549 304.53 472.927 282.736C496.36 241.475 439.45 338.494 439.45 338.494C424.572 361.54 414.901 385.776 437.218 356.336C470.695 318.421 535.416 249.281 507.519 308.384C484.085 358.031 466.231 389.791 562.197 321.766C583.399 306.737 715.645 118.534 694.987 146.686C682.712 163.413 626.918 219.171 576.704 327.342C562.569 357.451 546.352 401.835 594.558 338.494C654.815 259.317 659.279 267.123 649.236 300.578C638.858 335.148 614.644 379.755 659.279 356.336C682.712 346.3 771.983 250.396 734.043 289.427C730.791 292.772 664.858 387.561 712.841 366.373C744.086 352.576 824.429 267.495 804.343 286.081C800.996 289.179 745.625 386.336 794.3 359.682C875.76 315.075 919.279 257.087 885.802 293.887C878.512 301.902 867.948 315.075 852.326 345.185C845.383 358.567 843.88 386.106 904.772 351.876C922.627 341.839 984 298.348 984 298.348" stroke="currentcolor" stroke-width="6" stroke-linecap="round"/>
<path id="signatue_point" d="M908.12 267.123C910.352 263.778 910.352 262.663 912.584 260.432" stroke="currentcolor" stroke-width="6" stroke-linecap="round"/>
</svg>
