<svg width="1024" height="1024" viewBox="0 0 1024 1024" fill="none" xmlns="http://www.w3.org/2000/svg">
<path d="M62 292C62 264.386 84.3858 242 112 242H912C939.614 242 962 264.386 962 292C962 319.614 939.614 342 912 342H112C84.3858 342 62 319.614 62 292Z" fill="#D9D9D9"/>
<path d="M62 512C62 484.386 84.3858 462 112 462H912C939.614 462 962 484.386 962 512C962 539.614 939.614 562 912 562H112C84.3858 562 62 539.614 62 512Z" fill="#D9D9D9"/>
<path d="M62 732C62 704.386 84.3858 682 112 682H912C939.614 682 962 704.386 962 732C962 759.614 939.614 782 912 782H112C84.3858 782 62 759.614 62 732Z" fill="#D9D9D9"/>
</svg>
